<?xml version="1.0" encoding="UTF-8"?>
<!DOCTYPE svg PUBLIC "-//W3C//DTD SVG 1.1//EN" "http://www.w3.org/Graphics/SVG/1.1/DTD/svg11.dtd">
<svg xmlns="http://www.w3.org/2000/svg" version="1.1" width="169px" height="172px" style="shape-rendering:geometricPrecision; text-rendering:geometricPrecision; image-rendering:optimizeQuality; fill-rule:evenodd; clip-rule:evenodd" xmlns:xlink="http://www.w3.org/1999/xlink">
<g><path style="opacity:1" fill="#292924" d="M 93.5,-0.5 C 94.1667,-0.5 94.8333,-0.5 95.5,-0.5C 101.614,3.05904 107.947,6.39237 114.5,9.5C 115.489,13.1073 115.823,16.774 115.5,20.5C 113.61,20.7035 112.11,20.0368 111,18.5C 108.939,20.7838 106.439,22.4504 103.5,23.5C 100.91,22.8717 98.5766,21.705 96.5,20C 99.1667,18.6667 101.833,17.3333 104.5,16C 101.09,13.6284 97.4234,11.7951 93.5,10.5C 90.328,8.74808 87.328,6.74808 84.5,4.5C 87.9922,3.59025 90.9922,1.92358 93.5,-0.5 Z"/></g>
<g><path style="opacity:1" fill="#2b2a25" d="M 72.5,-0.5 C 73.1667,-0.5 73.8333,-0.5 74.5,-0.5C 77.0078,1.92358 80.0078,3.59025 83.5,4.5C 80.7376,6.72466 77.7376,8.72466 74.5,10.5C 77.5,12.3333 80.5,14.1667 83.5,16C 81.0038,17.0804 78.6705,18.4138 76.5,20C 78.9962,21.0804 81.3295,22.4138 83.5,24C 80.6089,25.2742 77.9422,26.7742 75.5,28.5C 74.8333,28.5 74.1667,28.5 73.5,28.5C 68.0263,25.2616 62.3596,22.2616 56.5,19.5C 58.2726,18.1077 60.2726,16.941 62.5,16C 59.3001,13.9005 55.9667,12.0672 52.5,10.5C 59.1667,6.83333 65.8333,3.16667 72.5,-0.5 Z"/></g>
<g><path style="opacity:1" fill="#312b2b" d="M 83.5,4.5 C 83.8333,4.5 84.1667,4.5 84.5,4.5C 87.328,6.74808 90.328,8.74808 93.5,10.5C 90.5638,12.3079 87.5638,14.1412 84.5,16C 86.9962,17.0804 89.3295,18.4138 91.5,20C 89.0038,21.0804 86.6705,22.4138 84.5,24C 93.6052,28.636 102.772,33.136 112,37.5C 114.56,36.47 117.06,35.3034 119.5,34C 114.651,29.7436 109.318,26.2436 103.5,23.5C 106.439,22.4504 108.939,20.7838 111,18.5C 112.11,20.0368 113.61,20.7035 115.5,20.5C 119.043,22.4383 122.71,24.1049 126.5,25.5C 132.941,29.5591 139.607,33.3924 146.5,37C 143.415,38.9596 140.248,40.7929 137,42.5C 133.574,40.2868 129.908,38.6202 126,37.5C 122.338,38.5798 118.838,40.0798 115.5,42C 116.672,42.4186 117.672,43.0853 118.5,44C 116.5,45 114.5,46 112.5,47C 117.675,50.088 123.008,52.9213 128.5,55.5C 129.298,55.9569 129.631,56.6236 129.5,57.5C 123.729,60.7194 117.729,63.3861 111.5,65.5C 108.833,64.1667 106.167,62.8333 103.5,61.5C 105.942,59.7742 108.609,58.2742 111.5,57C 108.661,55.0797 105.661,53.4131 102.5,52C 105.661,50.5869 108.661,48.9203 111.5,47C 99.2823,41.0589 87.2823,34.8923 75.5,28.5C 77.9422,26.7742 80.6089,25.2742 83.5,24C 81.3295,22.4138 78.9962,21.0804 76.5,20C 78.6705,18.4138 81.0038,17.0804 83.5,16C 80.5,14.1667 77.5,12.3333 74.5,10.5C 77.7376,8.72466 80.7376,6.72466 83.5,4.5 Z"/></g>
<g><path style="opacity:1" fill="#191919" d="M 52.5,10.5 C 55.9667,12.0672 59.3001,13.9005 62.5,16C 60.2726,16.941 58.2726,18.1077 56.5,19.5C 55.1667,19.8333 53.8333,20.1667 52.5,20.5C 52.5,17.1667 52.5,13.8333 52.5,10.5 Z"/></g>
<g><path style="opacity:1" fill="#312b2a" d="M 56.5,19.5 C 62.3596,22.2616 68.0263,25.2616 73.5,28.5C 70.8121,30.2663 67.9788,31.933 65,33.5C 61.9123,31.7059 58.7456,30.0392 55.5,28.5C 52.5963,30.12 49.5963,31.4533 46.5,32.5C 43.3777,31.4388 40.3777,30.1054 37.5,28.5C 42.3065,25.595 47.3065,22.9283 52.5,20.5C 53.8333,20.1667 55.1667,19.8333 56.5,19.5 Z"/></g>
<g><path style="opacity:1" fill="#2a2a24" d="M 158.5,42.5 C 148.118,46.1906 138.451,51.1906 129.5,57.5C 129.631,56.6236 129.298,55.9569 128.5,55.5C 123.008,52.9213 117.675,50.088 112.5,47C 114.5,46 116.5,45 118.5,44C 117.672,43.0853 116.672,42.4186 115.5,42C 118.838,40.0798 122.338,38.5798 126,37.5C 129.908,38.6202 133.574,40.2868 137,42.5C 140.248,40.7929 143.415,38.9596 146.5,37C 139.607,33.3924 132.941,29.5591 126.5,25.5C 130.176,24.2459 133.676,22.5793 137,20.5C 143.422,23.961 149.922,27.2944 156.5,30.5C 157.227,34.5406 157.894,38.5406 158.5,42.5 Z"/></g>
<g><path style="opacity:1" fill="#353535" d="M 93.5,10.5 C 97.4234,11.7951 101.09,13.6284 104.5,16C 101.833,17.3333 99.1667,18.6667 96.5,20C 98.5766,21.705 100.91,22.8717 103.5,23.5C 109.318,26.2436 114.651,29.7436 119.5,34C 117.06,35.3034 114.56,36.47 112,37.5C 102.772,33.136 93.6052,28.636 84.5,24C 86.6705,22.4138 89.0038,21.0804 91.5,20C 89.3295,18.4138 86.9962,17.0804 84.5,16C 87.5638,14.1412 90.5638,12.3079 93.5,10.5 Z"/></g>
<g><path style="opacity:1" fill="#2b2a25" d="M 37.5,28.5 C 40.3777,30.1054 43.3777,31.4388 46.5,32.5C 49.3037,34.4046 52.3037,36.0713 55.5,37.5C 52.7235,39.3924 49.7235,41.0591 46.5,42.5C 43.2544,40.9608 40.0877,39.2941 37,37.5C 34.5794,38.9606 32.0794,40.2939 29.5,41.5C 28.479,42.0016 28.3123,42.6683 29,43.5C 33.2071,43.1599 37.0404,44.4933 40.5,47.5C 37.3383,49.0552 34.6716,51.0552 32.5,53.5C 32.1667,53.5 31.8333,53.5 31.5,53.5C 25.379,49.2825 18.7124,45.9492 11.5,43.5C 10.7025,43.0431 10.3691,42.3764 10.5,41.5C 19.3736,36.8965 28.3736,32.5632 37.5,28.5 Z"/></g>
<g><path style="opacity:1" fill="#353534" d="M 73.5,28.5 C 74.1667,28.5 74.8333,28.5 75.5,28.5C 87.2823,34.8923 99.2823,41.0589 111.5,47C 108.661,48.9203 105.661,50.5869 102.5,52C 105.661,53.4131 108.661,55.0797 111.5,57C 108.609,58.2742 105.942,59.7742 103.5,61.5C 99.9568,59.5617 96.2901,57.8951 92.5,56.5C 80.3576,49.9281 68.0243,43.5947 55.5,37.5C 52.3037,36.0713 49.3037,34.4046 46.5,32.5C 49.5963,31.4533 52.5963,30.12 55.5,28.5C 58.7456,30.0392 61.9123,31.7059 65,33.5C 67.9788,31.933 70.8121,30.2663 73.5,28.5 Z"/></g>
<g><path style="opacity:1" fill="#1e1e1e" d="M 10.5,41.5 C 10.3691,42.3764 10.7025,43.0431 11.5,43.5C 18.7124,45.9492 25.379,49.2825 31.5,53.5C 31.6664,61.84 31.4997,70.1733 31,78.5C 27.9123,76.7059 24.7456,75.0392 21.5,73.5C 20.8333,68.8333 20.1667,64.1667 19.5,59.5C 16.8333,58.1667 14.1667,56.8333 11.5,55.5C 10.6694,61.8072 10.1694,68.1406 10,74.5C 8.33333,73.5 6.66667,72.5 5,71.5C 5.35997,77.0099 3.52664,78.3432 -0.5,75.5C -0.5,71.1667 -0.5,66.8333 -0.5,62.5C 2.14011,61.1799 4.80678,59.8466 7.5,58.5C 8.32947,53.1975 8.82947,47.8642 9,42.5C 9.38258,41.944 9.88258,41.6107 10.5,41.5 Z"/></g>
<g><path style="opacity:1" fill="#181818" d="M 158.5,42.5 C 160.622,46.2547 163.955,48.5881 168.5,49.5C 168.5,53.8333 168.5,58.1667 168.5,62.5C 164.343,65.3771 162.676,64.0438 163.5,58.5C 164.237,51.633 162.237,50.633 157.5,55.5C 157.663,53.1432 157.497,50.8098 157,48.5C 153.885,50.3068 150.719,51.9735 147.5,53.5C 136.833,58.8333 126.167,64.1667 115.5,69.5C 110.527,71.9867 105.527,74.4867 100.5,77C 99.5769,79.0408 99.2436,81.2075 99.5,83.5C 99.5,83.8333 99.5,84.1667 99.5,84.5C 94.6819,85.3028 93.3486,87.9695 95.5,92.5C 96.8599,91.8201 98.1932,91.1534 99.5,90.5C 100.361,95.082 98.6945,98.082 94.5,99.5C 94.7989,97.396 94.4656,95.396 93.5,93.5C 92.2519,94.0402 91.0852,94.7069 90,95.5C 89.501,99.8206 89.3343,104.154 89.5,108.5C 87.9505,109.441 86.2838,110.107 84.5,110.5C 84.5,100.167 84.5,89.8333 84.5,79.5C 93.6916,75.0719 102.692,70.4052 111.5,65.5C 117.729,63.3861 123.729,60.7194 129.5,57.5C 138.451,51.1906 148.118,46.1906 158.5,42.5 Z"/></g>
<g><path style="opacity:1" fill="#322b2b" d="M 55.5,37.5 C 68.0243,43.5947 80.3576,49.9281 92.5,56.5C 90.0578,58.2258 87.3911,59.7258 84.5,61C 87.3388,62.9203 90.3388,64.5869 93.5,66C 90.3939,67.6365 87.2272,69.1365 84,70.5C 80.5504,69.1938 77.3837,67.5272 74.5,65.5C 77.7568,64.5383 80.7568,63.0383 83.5,61C 74.3948,56.364 65.2281,51.864 56,47.5C 53.4398,48.53 50.9398,49.6966 48.5,51C 53.3874,53.2742 58.0541,55.7742 62.5,58.5C 58.931,60.1185 55.2644,61.4519 51.5,62.5C 45.2923,59.2294 38.9589,56.2294 32.5,53.5C 34.6716,51.0552 37.3383,49.0552 40.5,47.5C 37.0404,44.4933 33.2071,43.1599 29,43.5C 28.3123,42.6683 28.479,42.0016 29.5,41.5C 32.0794,40.2939 34.5794,38.9606 37,37.5C 40.0877,39.2941 43.2544,40.9608 46.5,42.5C 49.7235,41.0591 52.7235,39.3924 55.5,37.5 Z"/></g>
<g><path style="opacity:1" fill="#363636" d="M 74.5,65.5 C 72.2547,65.4588 71.5881,64.6255 72.5,63C 69.2635,61.2138 65.9302,59.7138 62.5,58.5C 58.0541,55.7742 53.3874,53.2742 48.5,51C 50.9398,49.6966 53.4398,48.53 56,47.5C 65.2281,51.864 74.3948,56.364 83.5,61C 80.7568,63.0383 77.7568,64.5383 74.5,65.5 Z"/></g>
<g><path style="opacity:1" fill="#767676" d="M 157.5,55.5 C 154.167,56.8333 150.833,58.1667 147.5,59.5C 147.5,57.5 147.5,55.5 147.5,53.5C 150.719,51.9735 153.885,50.3068 157,48.5C 157.497,50.8098 157.663,53.1432 157.5,55.5 Z"/></g>
<g><path style="opacity:1" fill="#000000" d="M 163.5,58.5 C 156.089,61.6922 148.923,65.3589 142,69.5C 141.186,67.0982 141.353,64.7649 142.5,62.5C 144.396,61.7255 146.063,60.7255 147.5,59.5C 150.833,58.1667 154.167,56.8333 157.5,55.5C 162.237,50.633 164.237,51.633 163.5,58.5 Z"/></g>
<g><path style="opacity:1" fill="#919191" d="M 147.5,53.5 C 147.5,55.5 147.5,57.5 147.5,59.5C 146.063,60.7255 144.396,61.7255 142.5,62.5C 141.353,64.7649 141.186,67.0982 142,69.5C 148.923,65.3589 156.089,61.6922 163.5,58.5C 162.676,64.0438 164.343,65.3771 168.5,62.5C 168.5,71.1667 168.5,79.8333 168.5,88.5C 166.632,89.2632 164.965,90.2632 163.5,91.5C 158.167,93.8333 152.833,96.1667 147.5,98.5C 147.174,94.1161 147.508,89.7828 148.5,85.5C 149.86,84.8201 151.193,84.1534 152.5,83.5C 155.807,81.8466 159.14,80.1799 162.5,78.5C 163.474,76.2573 163.808,73.924 163.5,71.5C 163.799,69.396 163.466,67.396 162.5,65.5C 155.802,68.8489 149.136,72.1822 142.5,75.5C 141.76,83.9518 141.426,92.6184 141.5,101.5C 138.485,103.674 135.151,105.341 131.5,106.5C 131.662,104.473 131.495,102.473 131,100.5C 127.226,102.225 125.726,105.225 126.5,109.5C 123.193,111.153 119.86,112.82 116.5,114.5C 115.692,112.577 115.192,110.577 115,108.5C 111.912,110.294 108.746,111.961 105.5,113.5C 104.534,111.604 104.201,109.604 104.5,107.5C 102.632,108.263 100.965,109.263 99.5,110.5C 97.8297,110.751 96.3297,111.418 95,112.5C 94.501,108.179 94.3343,103.846 94.5,99.5C 98.6945,98.082 100.361,95.082 99.5,90.5C 108.14,86.1799 116.807,81.8466 125.5,77.5C 126.647,75.2351 126.814,72.9018 126,70.5C 122.676,72.5793 119.176,74.2459 115.5,75.5C 115.5,73.5 115.5,71.5 115.5,69.5C 126.167,64.1667 136.833,58.8333 147.5,53.5 Z"/></g>
<g><path style="opacity:1" fill="#2a2b24" d="M 92.5,56.5 C 96.2901,57.8951 99.9568,59.5617 103.5,61.5C 106.167,62.8333 108.833,64.1667 111.5,65.5C 102.692,70.4052 93.6916,75.0719 84.5,79.5C 73.5234,74.6784 62.8567,69.345 52.5,63.5C 51.8333,63.5 51.5,63.1667 51.5,62.5C 55.2644,61.4519 58.931,60.1185 62.5,58.5C 65.9302,59.7138 69.2635,61.2138 72.5,63C 71.5881,64.6255 72.2547,65.4588 74.5,65.5C 77.3837,67.5272 80.5504,69.1938 84,70.5C 87.2272,69.1365 90.3939,67.6365 93.5,66C 90.3388,64.5869 87.3388,62.9203 84.5,61C 87.3911,59.7258 90.0578,58.2258 92.5,56.5 Z"/></g>
<g><path style="opacity:1" fill="#201f1f" d="M 52.5,63.5 C 62.8567,69.345 73.5234,74.6784 84.5,79.5C 84.5,89.8333 84.5,100.167 84.5,110.5C 83.6862,112.631 83.1862,114.964 83,117.5C 80.2458,115.873 77.4125,114.373 74.5,113C 73.6971,108.586 73.1971,104.086 73,99.5C 66.3441,95.7552 59.5108,92.4218 52.5,89.5C 52.5,89.1667 52.5,88.8333 52.5,88.5C 52.5,80.1667 52.5,71.8333 52.5,63.5 Z"/></g>
<g><path style="opacity:1" fill="#000000" d="M 163.5,71.5 C 160.193,73.1534 156.86,74.8201 153.5,76.5C 152.526,78.7427 152.192,81.076 152.5,83.5C 151.193,84.1534 149.86,84.8201 148.5,85.5C 147.508,89.7828 147.174,94.1161 147.5,98.5C 145.819,100.008 143.819,101.008 141.5,101.5C 141.426,92.6184 141.76,83.9518 142.5,75.5C 149.136,72.1822 155.802,68.8489 162.5,65.5C 163.466,67.396 163.799,69.396 163.5,71.5 Z"/></g>
<g><path style="opacity:1" fill="#737373" d="M 115.5,69.5 C 115.5,71.5 115.5,73.5 115.5,75.5C 110.484,78.6745 105.151,81.3412 99.5,83.5C 99.2436,81.2075 99.5769,79.0408 100.5,77C 105.527,74.4867 110.527,71.9867 115.5,69.5 Z"/></g>
<g><path style="opacity:1" fill="#000000" d="M 99.5,90.5 C 99.5,88.5 99.5,86.5 99.5,84.5C 99.5,84.1667 99.5,83.8333 99.5,83.5C 105.151,81.3412 110.484,78.6745 115.5,75.5C 119.176,74.2459 122.676,72.5793 126,70.5C 126.814,72.9018 126.647,75.2351 125.5,77.5C 116.807,81.8466 108.14,86.1799 99.5,90.5 Z"/></g>
<g><path style="opacity:1" fill="#6f6a6a" d="M 163.5,71.5 C 163.808,73.924 163.474,76.2573 162.5,78.5C 159.14,80.1799 155.807,81.8466 152.5,83.5C 152.192,81.076 152.526,78.7427 153.5,76.5C 156.86,74.8201 160.193,73.1534 163.5,71.5 Z"/></g>
<g><path style="opacity:1" fill="#272525" d="M 31.5,53.5 C 31.8333,53.5 32.1667,53.5 32.5,53.5C 38.9589,56.2294 45.2923,59.2294 51.5,62.5C 51.5,63.1667 51.8333,63.5 52.5,63.5C 52.5,71.8333 52.5,80.1667 52.5,88.5C 48.8244,87.2459 45.3244,85.5793 42,83.5C 41.5001,96.1623 41.3334,108.829 41.5,121.5C 40.1667,121.167 38.8333,120.833 37.5,120.5C 36.063,119.275 34.3964,118.275 32.5,117.5C 31.5258,115.257 31.1924,112.924 31.5,110.5C 31.6621,108.473 31.4955,106.473 31,104.5C 27.9123,102.706 24.7456,101.039 21.5,99.5C 20.5344,101.396 20.2011,103.396 20.5,105.5C 19.8333,109.167 19.1667,112.833 18.5,116.5C 18.5,120.167 18.5,123.833 18.5,127.5C 15.1667,125.833 11.8333,124.167 8.5,122.5C 8.65668,121.127 8.49001,119.793 8,118.5C 5.05679,116.948 2.22346,115.281 -0.5,113.5C -0.5,100.833 -0.5,88.1667 -0.5,75.5C 3.52664,78.3432 5.35997,77.0099 5,71.5C 6.66667,72.5 8.33333,73.5 10,74.5C 10.1694,68.1406 10.6694,61.8072 11.5,55.5C 14.1667,56.8333 16.8333,58.1667 19.5,59.5C 20.1667,64.1667 20.8333,68.8333 21.5,73.5C 24.7456,75.0392 27.9123,76.7059 31,78.5C 31.4997,70.1733 31.6664,61.84 31.5,53.5 Z"/></g>
<g><path style="opacity:1" fill="#000000" d="M 131.5,87.5 C 126.527,89.9867 121.527,92.4867 116.5,95C 115.577,97.0408 115.244,99.2075 115.5,101.5C 112.028,103.738 108.362,105.738 104.5,107.5C 104.2,102.901 104.533,98.4014 105.5,94C 113.833,89.8333 122.167,85.6667 130.5,81.5C 131.466,83.396 131.799,85.396 131.5,87.5 Z"/></g>
<g><path style="opacity:1" fill="#2b2a2a" d="M 52.5,88.5 C 52.5,88.8333 52.5,89.1667 52.5,89.5C 52.5,98.1667 52.5,106.833 52.5,115.5C 52.5,121.5 52.5,127.5 52.5,133.5C 52.6633,135.857 52.4966,138.19 52,140.5C 48.9123,138.706 45.7456,137.039 42.5,135.5C 41.5067,130.88 41.1734,126.214 41.5,121.5C 41.3334,108.829 41.5001,96.1623 42,83.5C 45.3244,85.5793 48.8244,87.2459 52.5,88.5 Z"/></g>
<g><path style="opacity:1" fill="#696a69" d="M 99.5,84.5 C 99.5,86.5 99.5,88.5 99.5,90.5C 98.1932,91.1534 96.8599,91.8201 95.5,92.5C 93.3486,87.9695 94.6819,85.3028 99.5,84.5 Z"/></g>
<g><path style="opacity:1" fill="#6f6a6a" d="M 131.5,87.5 C 131.808,89.924 131.474,92.2573 130.5,94.5C 125.599,97.1183 120.599,99.4516 115.5,101.5C 115.244,99.2075 115.577,97.0408 116.5,95C 121.527,92.4867 126.527,89.9867 131.5,87.5 Z"/></g>
<g><path style="opacity:1" fill="#6b6b6b" d="M 163.5,91.5 C 163.5,93.5 163.5,95.5 163.5,97.5C 151.04,103.23 138.706,109.23 126.5,115.5C 126.5,113.5 126.5,111.5 126.5,109.5C 128.368,108.737 130.035,107.737 131.5,106.5C 135.151,105.341 138.485,103.674 141.5,101.5C 143.819,101.008 145.819,100.008 147.5,98.5C 152.833,96.1667 158.167,93.8333 163.5,91.5 Z"/></g>
<g><path style="opacity:1" fill="#000000" d="M 163.5,97.5 C 163.5,101.833 163.5,106.167 163.5,110.5C 161.5,111.167 159.5,111.833 157.5,112.5C 157.662,110.473 157.495,108.473 157,106.5C 153.066,108.231 151.732,111.231 153,115.5C 154.33,114.418 155.83,113.751 157.5,113.5C 157.5,115.5 157.5,117.5 157.5,119.5C 153.306,120.918 151.639,123.918 152.5,128.5C 141.949,133.692 131.449,139.026 121,144.5C 121.36,138.99 119.527,137.657 115.5,140.5C 115.799,138.396 115.466,136.396 114.5,134.5C 113.252,135.04 112.085,135.707 111,136.5C 111.37,131.042 109.537,129.708 105.5,132.5C 104.534,130.604 104.201,128.604 104.5,126.5C 104.824,122.445 104.491,118.445 103.5,114.5C 102.14,115.18 100.807,115.847 99.5,116.5C 99.5,114.5 99.5,112.5 99.5,110.5C 100.965,109.263 102.632,108.263 104.5,107.5C 104.201,109.604 104.534,111.604 105.5,113.5C 108.746,111.961 111.912,110.294 115,108.5C 115.192,110.577 115.692,112.577 116.5,114.5C 119.86,112.82 123.193,111.153 126.5,109.5C 126.5,111.5 126.5,113.5 126.5,115.5C 138.706,109.23 151.04,103.23 163.5,97.5 Z"/></g>
<g><path style="opacity:1" fill="#05060c" d="M 31.5,110.5 C 30.1667,110.167 28.8333,109.833 27.5,109.5C 25.3649,107.929 23.0316,106.596 20.5,105.5C 20.2011,103.396 20.5344,101.396 21.5,99.5C 24.7456,101.039 27.9123,102.706 31,104.5C 31.4955,106.473 31.6621,108.473 31.5,110.5 Z"/></g>
<g><path style="opacity:1" fill="#000000" d="M 131.5,106.5 C 130.035,107.737 128.368,108.737 126.5,109.5C 125.726,105.225 127.226,102.225 131,100.5C 131.495,102.473 131.662,104.473 131.5,106.5 Z"/></g>
<g><path style="opacity:1" fill="#9b9ca7" d="M 20.5,105.5 C 23.0316,106.596 25.3649,107.929 27.5,109.5C 27.5,113.167 27.5,116.833 27.5,120.5C 24.6223,118.895 21.6223,117.561 18.5,116.5C 19.1667,112.833 19.8333,109.167 20.5,105.5 Z"/></g>
<g><path style="opacity:1" fill="#838383" d="M 94.5,99.5 C 94.3343,103.846 94.501,108.179 95,112.5C 96.3297,111.418 97.8297,110.751 99.5,110.5C 99.5,112.5 99.5,114.5 99.5,116.5C 97.6316,117.263 95.9649,118.263 94.5,119.5C 92.8297,119.751 91.3297,120.418 90,121.5C 89.501,117.179 89.3343,112.846 89.5,108.5C 89.3343,104.154 89.501,99.8206 90,95.5C 91.0852,94.7069 92.2519,94.0402 93.5,93.5C 94.4656,95.396 94.7989,97.396 94.5,99.5 Z"/></g>
<g><path style="opacity:1" fill="#888988" d="M 157.5,112.5 C 157.5,112.833 157.5,113.167 157.5,113.5C 155.83,113.751 154.33,114.418 153,115.5C 151.732,111.231 153.066,108.231 157,106.5C 157.495,108.473 157.662,110.473 157.5,112.5 Z"/></g>
<g><path style="opacity:1" fill="#1f375c" d="M 27.5,109.5 C 28.8333,109.833 30.1667,110.167 31.5,110.5C 31.1924,112.924 31.5258,115.257 32.5,117.5C 34.3964,118.275 36.063,119.275 37.5,120.5C 37.5,122.167 37.5,123.833 37.5,125.5C 34.1667,123.833 30.8333,122.167 27.5,120.5C 27.5,116.833 27.5,113.167 27.5,109.5 Z"/></g>
<g><path style="opacity:1" fill="#696a69" d="M 163.5,110.5 C 163.5,111.167 163.5,111.833 163.5,112.5C 163.5,113.833 163.5,115.167 163.5,116.5C 161.5,117.5 159.5,118.5 157.5,119.5C 157.5,117.5 157.5,115.5 157.5,113.5C 157.5,113.167 157.5,112.833 157.5,112.5C 159.5,111.833 161.5,111.167 163.5,110.5 Z"/></g>
<g><path style="opacity:1" fill="#272626" d="M 52.5,89.5 C 59.5108,92.4218 66.3441,95.7552 73,99.5C 73.1971,104.086 73.6971,108.586 74.5,113C 77.4125,114.373 80.2458,115.873 83,117.5C 83.1862,114.964 83.6862,112.631 84.5,110.5C 84.5,117.167 84.5,123.833 84.5,130.5C 83.8334,138.676 83.1667,147.01 82.5,155.5C 79.8068,154.153 77.1401,152.82 74.5,151.5C 73.5269,149.052 73.1936,146.385 73.5,143.5C 73.8567,137.977 71.1901,134.977 65.5,134.5C 63.7982,132.2 63.1315,129.533 63.5,126.5C 63.6621,124.473 63.4955,122.473 63,120.5C 60.5524,119.027 58.0524,117.693 55.5,116.5C 54.609,115.89 53.609,115.557 52.5,115.5C 52.5,106.833 52.5,98.1667 52.5,89.5 Z"/></g>
<g><path style="opacity:1" fill="#000000" d="M 163.5,112.5 C 165.117,113.038 166.784,113.371 168.5,113.5C 168.5,113.833 168.5,114.167 168.5,114.5C 166.716,114.893 165.05,115.559 163.5,116.5C 163.5,115.167 163.5,113.833 163.5,112.5 Z"/></g>
<g><path style="opacity:1" fill="#727272" d="M 168.5,114.5 C 168.5,118.833 168.5,123.167 168.5,127.5C 166.83,127.751 165.33,128.418 164,129.5C 163.814,131.9 163.314,134.234 162.5,136.5C 157.28,138.941 152.28,141.608 147.5,144.5C 137.066,149.216 126.733,154.216 116.5,159.5C 115.614,158.675 115.281,157.675 115.5,156.5C 115.5,155.5 115.5,154.5 115.5,153.5C 129.14,146.68 142.807,139.847 156.5,133C 158.463,127.453 157.13,125.953 152.5,128.5C 151.639,123.918 153.306,120.918 157.5,119.5C 156.665,124.992 158.332,126.326 162.5,123.5C 163.474,121.257 163.808,118.924 163.5,116.5C 165.05,115.559 166.716,114.893 168.5,114.5 Z"/></g>
<g><path style="opacity:1" fill="#a78f88" d="M 52.5,115.5 C 53.609,115.557 54.609,115.89 55.5,116.5C 55.5,118.833 55.5,121.167 55.5,123.5C 55.5,127.167 55.5,130.833 55.5,134.5C 54.609,133.89 53.609,133.557 52.5,133.5C 52.5,127.5 52.5,121.5 52.5,115.5 Z"/></g>
<g><path style="opacity:1" fill="#c7c8c7" d="M 18.5,116.5 C 21.6223,117.561 24.6223,118.895 27.5,120.5C 27.5,124.167 27.5,127.833 27.5,131.5C 24.3777,130.439 21.3777,129.105 18.5,127.5C 18.5,123.833 18.5,120.167 18.5,116.5 Z"/></g>
<g><path style="opacity:1" fill="#0b0605" d="M 55.5,116.5 C 58.0524,117.693 60.5524,119.027 63,120.5C 63.4955,122.473 63.6621,124.473 63.5,126.5C 60.8333,125.5 58.1667,124.5 55.5,123.5C 55.5,121.167 55.5,118.833 55.5,116.5 Z"/></g>
<g><path style="opacity:1" fill="#959695" d="M 163.5,116.5 C 163.808,118.924 163.474,121.257 162.5,123.5C 158.332,126.326 156.665,124.992 157.5,119.5C 159.5,118.5 161.5,117.5 163.5,116.5 Z"/></g>
<g><path style="opacity:1" fill="#8d8d8d" d="M 146.5,111.5 C 147.647,115.646 147.814,119.98 147,124.5C 145.333,125.5 143.667,126.5 142,127.5C 141.333,123.167 141.333,118.833 142,114.5C 143.652,113.601 145.152,112.601 146.5,111.5 Z"/></g>
<g><path style="opacity:1" fill="#6f6f6f" d="M 89.5,108.5 C 89.3343,112.846 89.501,117.179 90,121.5C 91.3297,120.418 92.8297,119.751 94.5,119.5C 94.3379,121.527 94.5045,123.527 95,125.5C 98.7735,123.775 100.274,120.775 99.5,116.5C 100.807,115.847 102.14,115.18 103.5,114.5C 104.491,118.445 104.824,122.445 104.5,126.5C 103.193,127.153 101.86,127.82 100.5,128.5C 99.1667,132.833 99.1667,137.167 100.5,141.5C 101.748,140.96 102.915,140.293 104,139.5C 104.192,141.577 104.692,143.577 105.5,145.5C 107.075,144.544 108.742,143.877 110.5,143.5C 110.5,145.5 110.5,147.5 110.5,149.5C 108.614,150.361 106.78,151.361 105,152.5C 104.536,151.906 104.369,151.239 104.5,150.5C 104.721,145.938 103.221,145.272 100,148.5C 99.8078,146.423 99.3078,144.423 98.5,142.5C 97.2519,143.04 96.0852,143.707 95,144.5C 94.8091,142.292 94.3091,140.292 93.5,138.5C 92.2794,139.028 91.1127,139.695 90,140.5C 89.8265,136.459 89.3265,132.459 88.5,128.5C 87.1401,129.18 85.8068,129.847 84.5,130.5C 84.5,123.833 84.5,117.167 84.5,110.5C 86.2838,110.107 87.9505,109.441 89.5,108.5 Z"/></g>
<g><path style="opacity:1" fill="#000000" d="M 99.5,116.5 C 100.274,120.775 98.7735,123.775 95,125.5C 94.5045,123.527 94.3379,121.527 94.5,119.5C 95.9649,118.263 97.6316,117.263 99.5,116.5 Z"/></g>
<g><path style="opacity:1" fill="#325796" d="M 27.5,120.5 C 30.8333,122.167 34.1667,123.833 37.5,125.5C 37.8226,129.226 37.4892,132.893 36.5,136.5C 33.2765,135.059 30.2765,133.392 27.5,131.5C 27.5,127.833 27.5,124.167 27.5,120.5 Z"/></g>
<g><path style="opacity:1" fill="#919191" d="M 113.5,115.5 C 114.794,117.048 115.461,119.048 115.5,121.5C 116.329,125.426 114.996,128.093 111.5,129.5C 110.34,125.541 110.173,121.541 111,117.5C 111.995,116.934 112.828,116.267 113.5,115.5 Z"/></g>
<g><path style="opacity:1" fill="#8b8b8b" d="M 126.5,115.5 C 126.83,122.2 126.497,128.866 125.5,135.5C 124.167,136.167 122.833,136.833 121.5,137.5C 120.336,131.193 120.169,124.859 121,118.5C 122.78,117.361 124.614,116.361 126.5,115.5 Z"/></g>
<g><path style="opacity:1" fill="#4a1211" d="M 55.5,123.5 C 58.1667,124.5 60.8333,125.5 63.5,126.5C 63.1315,129.533 63.7982,132.2 65.5,134.5C 65.5,136.167 65.5,137.833 65.5,139.5C 62.1667,137.833 58.8333,136.167 55.5,134.5C 55.5,130.833 55.5,127.167 55.5,123.5 Z"/></g>
<g><path style="opacity:1" fill="#919191" d="M 134.5,117.5 C 135.8,119.223 136.467,121.39 136.5,124C 136.982,128.064 135.482,130.898 132,132.5C 131.333,128.167 131.333,123.833 132,119.5C 132.995,118.934 133.828,118.267 134.5,117.5 Z"/></g>
<g><path style="opacity:1" fill="#888988" d="M 104.5,126.5 C 104.201,128.604 104.534,130.604 105.5,132.5C 109.537,129.708 111.37,131.042 111,136.5C 112.085,135.707 113.252,135.04 114.5,134.5C 115.466,136.396 115.799,138.396 115.5,140.5C 113.632,141.263 111.965,142.263 110.5,143.5C 108.742,143.877 107.075,144.544 105.5,145.5C 104.692,143.577 104.192,141.577 104,139.5C 102.915,140.293 101.748,140.96 100.5,141.5C 99.1667,137.167 99.1667,132.833 100.5,128.5C 101.86,127.82 103.193,127.153 104.5,126.5 Z"/></g>
<g><path style="opacity:1" fill="#959695" d="M 115.5,153.5 C 116.324,147.956 114.657,146.623 110.5,149.5C 110.5,147.5 110.5,145.5 110.5,143.5C 111.965,142.263 113.632,141.263 115.5,140.5C 119.527,137.657 121.36,138.99 121,144.5C 131.449,139.026 141.949,133.692 152.5,128.5C 157.13,125.953 158.463,127.453 156.5,133C 142.807,139.847 129.14,146.68 115.5,153.5 Z"/></g>
<g><path style="opacity:1" fill="#000000" d="M 168.5,127.5 C 168.5,131.833 168.5,136.167 168.5,140.5C 161.489,143.422 154.656,146.755 148,150.5C 147.505,148.527 147.338,146.527 147.5,144.5C 152.28,141.608 157.28,138.941 162.5,136.5C 163.314,134.234 163.814,131.9 164,129.5C 165.33,128.418 166.83,127.751 168.5,127.5 Z"/></g>
<g><path style="opacity:1" fill="#1a1a1a" d="M 93.5,138.5 C 93.5,144.167 93.5,149.833 93.5,155.5C 90.3858,157.391 87.0525,158.724 83.5,159.5C 80.3777,158.439 77.3777,157.105 74.5,155.5C 74.5,154.167 74.5,152.833 74.5,151.5C 77.1401,152.82 79.8068,154.153 82.5,155.5C 83.1667,147.01 83.8334,138.676 84.5,130.5C 85.8068,129.847 87.1401,129.18 88.5,128.5C 89.3265,132.459 89.8265,136.459 90,140.5C 91.1127,139.695 92.2794,139.028 93.5,138.5 Z"/></g>
<g><path style="opacity:1" fill="#997c76" d="M 37.5,120.5 C 38.8333,120.833 40.1667,121.167 41.5,121.5C 41.1734,126.214 41.5067,130.88 42.5,135.5C 45.7456,137.039 48.9123,138.706 52,140.5C 52.4966,138.19 52.6633,135.857 52.5,133.5C 53.609,133.557 54.609,133.89 55.5,134.5C 55.5,138.167 55.5,141.833 55.5,145.5C 49.7343,143.118 44.0677,140.451 38.5,137.5C 37.7668,141.204 37.1002,144.871 36.5,148.5C 27.5266,144.013 18.5266,139.513 9.5,135C 8.53632,130.934 8.20299,126.767 8.5,122.5C 11.8333,124.167 15.1667,125.833 18.5,127.5C 21.3777,129.105 24.3777,130.439 27.5,131.5C 30.2765,133.392 33.2765,135.059 36.5,136.5C 37.4892,132.893 37.8226,129.226 37.5,125.5C 37.5,123.833 37.5,122.167 37.5,120.5 Z"/></g>
<g><path style="opacity:1" fill="#7c191e" d="M 55.5,134.5 C 58.8333,136.167 62.1667,137.833 65.5,139.5C 65.5,143.167 65.5,146.833 65.5,150.5C 61.8487,149.341 58.5154,147.674 55.5,145.5C 55.5,141.833 55.5,138.167 55.5,134.5 Z"/></g>
<g><path style="opacity:1" fill="#704a4b" d="M 65.5,134.5 C 71.1901,134.977 73.8567,137.977 73.5,143.5C 70.8333,142.167 68.1667,140.833 65.5,139.5C 65.5,137.833 65.5,136.167 65.5,134.5 Z"/></g>
<g><path style="opacity:1" fill="#a48b85" d="M 55.5,145.5 C 58.5154,147.674 61.8487,149.341 65.5,150.5C 65.5,150.833 65.5,151.167 65.5,151.5C 65.756,155.269 65.4227,158.936 64.5,162.5C 55.1667,157.833 45.8333,153.167 36.5,148.5C 37.1002,144.871 37.7668,141.204 38.5,137.5C 44.0677,140.451 49.7343,143.118 55.5,145.5 Z"/></g>
<g><path style="opacity:1" fill="#9b6a6f" d="M 65.5,139.5 C 68.1667,140.833 70.8333,142.167 73.5,143.5C 73.1936,146.385 73.5269,149.052 74.5,151.5C 74.5,152.833 74.5,154.167 74.5,155.5C 71.6223,153.895 68.6223,152.561 65.5,151.5C 65.5,151.167 65.5,150.833 65.5,150.5C 65.5,146.833 65.5,143.167 65.5,139.5 Z"/></g>
<g><path style="opacity:1" fill="#7c6963" d="M 93.5,138.5 C 94.3091,140.292 94.8091,142.292 95,144.5C 96.0852,143.707 97.2519,143.04 98.5,142.5C 99.3078,144.423 99.8078,146.423 100,148.5C 103.221,145.272 104.721,145.938 104.5,150.5C 103.508,150.328 102.842,150.662 102.5,151.5C 99.3777,152.561 96.3777,153.895 93.5,155.5C 93.5,149.833 93.5,144.167 93.5,138.5 Z"/></g>
<g><path style="opacity:1" fill="#696a69" d="M 115.5,153.5 C 111.343,156.377 109.676,155.044 110.5,149.5C 114.657,146.623 116.324,147.956 115.5,153.5 Z"/></g>
<g><path style="opacity:1" fill="#191918" d="M 110.5,149.5 C 109.676,155.044 111.343,156.377 115.5,153.5C 115.5,154.5 115.5,155.5 115.5,156.5C 111.042,158.229 106.709,160.229 102.5,162.5C 102.5,158.833 102.5,155.167 102.5,151.5C 102.842,150.662 103.508,150.328 104.5,150.5C 104.369,151.239 104.536,151.906 105,152.5C 106.78,151.361 108.614,150.361 110.5,149.5 Z"/></g>
<g><path style="opacity:1" fill="#95756f" d="M 65.5,151.5 C 68.6223,152.561 71.6223,153.895 74.5,155.5C 77.3777,157.105 80.3777,158.439 83.5,159.5C 84.4299,163.4 84.7633,167.4 84.5,171.5C 83.5,171.5 82.5,171.5 81.5,171.5C 76.0263,168.262 70.3596,165.262 64.5,162.5C 65.4227,158.936 65.756,155.269 65.5,151.5 Z"/></g>
<g><path style="opacity:1" fill="#6f5650" d="M 102.5,151.5 C 102.5,155.167 102.5,158.833 102.5,162.5C 96.6404,165.262 90.9737,168.262 85.5,171.5C 85.1667,171.5 84.8333,171.5 84.5,171.5C 84.7633,167.4 84.4299,163.4 83.5,159.5C 87.0525,158.724 90.3858,157.391 93.5,155.5C 96.3777,153.895 99.3777,152.561 102.5,151.5 Z"/></g>
</svg>
